<svg width="24" height="23" viewBox="0 0 24 23" fill="none" xmlns="http://www.w3.org/2000/svg">
<path d="M4.85557 21.16C4.8557 21.6481 5.05815 22.1162 5.41839 22.4613C5.77863 22.8063 6.26715 23.0001 6.77648 23C7.28581 22.9999 7.77423 22.8059 8.1343 22.4606C8.49436 22.1154 8.69657 21.6472 8.69644 21.1591C8.69638 20.9174 8.64664 20.6781 8.55007 20.4548C8.4535 20.2315 8.31199 20.0287 8.13362 19.8578C7.95524 19.687 7.7435 19.5514 7.51048 19.459C7.27746 19.3666 7.02772 19.319 6.77552 19.3191C6.52333 19.3191 6.27361 19.3668 6.04064 19.4594C5.80767 19.5519 5.596 19.6875 5.41771 19.8585C5.23943 20.0294 5.09802 20.2323 5.00157 20.4557C4.90512 20.679 4.8555 20.9183 4.85557 21.16ZM16.4511 21.16C16.4511 22.1757 17.3113 23 18.3711 23C19.4309 23 20.2354 22.1757 20.2354 21.16C20.2354 20.1443 19.4309 19.32 18.3711 19.32C17.3113 19.32 16.4511 20.1443 16.4511 21.16ZM0 0.92C0 1.164 0.10114 1.398 0.281171 1.57054C0.461202 1.74307 0.705376 1.84 0.959978 1.84H1.99483L2.85305 4.91372L4.85557 11.96C4.85557 12.0262 4.88821 12.0833 4.89589 12.1477L3.91863 16.3613C3.88704 16.4957 3.88747 16.6353 3.9199 16.7696C3.95233 16.9039 4.01592 17.0294 4.10594 17.1369C4.19597 17.2444 4.31011 17.3311 4.43989 17.3905C4.56967 17.4499 4.71175 17.4805 4.85557 17.48H20.8968C21.1514 17.48 21.3956 17.3831 21.5756 17.2105C21.7556 17.038 21.8568 16.804 21.8568 16.56C21.8568 16.316 21.7556 16.082 21.5756 15.9095C21.3956 15.7369 21.1514 15.64 20.8968 15.64H6.05362L6.49329 13.7439C6.58929 13.7595 6.67569 13.8 6.77552 13.8H18.5929C19.6527 13.8 20.2363 13.5994 20.747 12.42L23.865 6.01312C24.4055 4.37 23.218 3.68 22.1553 3.68H4.85557C4.70485 3.68 4.57525 3.72968 4.4351 3.76096L3.69016 0.71024C3.64077 0.508122 3.52151 0.327951 3.35176 0.199008C3.18201 0.0700652 2.97174 -7.02884e-05 2.75514 5.28591e-08H0.959978C0.705376 5.28591e-08 0.461202 0.0969284 0.281171 0.269462C0.10114 0.441995 0 0.676001 0 0.92ZM4.89397 5.52H22.0123L18.948 11.7742C18.9116 11.8533 18.8808 11.9094 18.8578 11.949C18.7935 11.9545 18.7493 11.96 18.5919 11.96H6.77552V11.7778L6.73904 11.5984L4.89397 5.52Z" fill="#1D2523"/>
</svg>
