<svg width="20" height="20" viewBox="0 0 20 20" fill="none" xmlns="http://www.w3.org/2000/svg">
<path d="M20 18.58L18.5788 20L13.2788 14.6988C11.8415 15.8418 10.0551 16.4561 8.21878 16.4388C6.03979 16.4345 3.9507 15.5697 2.40629 14.0325C1.64183 13.2729 1.03631 12.3687 0.625048 11.3725C0.20905 10.3733 -0.00342902 9.30114 4.91641e-05 8.21879C-0.00369723 7.13884 0.206703 6.06887 0.619081 5.07075C1.03146 4.07263 1.63763 3.16617 2.40254 2.4038C3.16946 1.64184 4.07824 1.03754 5.07754 0.625058C6.07297 0.211007 7.14067 -0.00142671 8.21878 5.95533e-05C9.302 -0.00408767 10.3751 0.208411 11.375 0.625058C12.375 1.04006 13.2625 1.63255 14.0363 2.4038C14.807 3.16206 15.4174 4.06748 15.8313 5.06629C16.2453 6.06559 16.4569 7.13712 16.4538 8.21879C16.4538 10.0975 15.8688 11.785 14.7038 13.2788L20 18.58ZM3.81629 12.6138C5.03254 13.8288 6.50003 14.44 8.21878 14.44C9.94127 14.44 11.4075 13.8288 12.625 12.6138C13.835 11.405 14.4375 9.94128 14.4375 8.22128C14.4375 6.50879 13.835 5.04004 12.625 3.8163C11.3988 2.6063 9.93252 2.0038 8.21878 2.0038C6.49878 2.0038 5.03504 2.60755 3.82754 3.8163C2.61129 5.03254 2.00254 6.49879 2.00254 8.22004C2.00254 9.93878 2.60754 11.405 3.81629 12.6138Z" fill="#1D2523"/>
</svg>
