<svg width="21" height="20" viewBox="0 0 21 20" fill="none" xmlns="http://www.w3.org/2000/svg">
<path d="M14.0608 10.9637C14.4677 11.1038 14.7565 11.2025 15.036 11.3013C15.7645 11.5563 16.3289 11.7663 16.8302 11.975C18.4433 12.6438 19.4461 13.2938 20.0039 14.3313C20.6129 15.5025 20.9515 16.7787 20.9988 18.0775C21.0381 19.1275 20.1299 20 18.9985 20H2.0015C0.870115 20 -0.0381416 19.1288 0.00123364 18.0775C0.0508125 16.7669 0.394049 15.4815 1.00793 14.3075C1.55393 13.2938 2.55669 12.645 4.17108 11.975C4.76171 11.7335 5.35959 11.5084 5.96397 11.3L7.23973 10.8625C7.2379 10.8324 7.23528 10.8024 7.23185 10.7725C6.00203 9.415 5.43502 7.93875 5.43502 5.56C5.43502 2.195 7.24104 0 10.5039 0C13.7655 0 15.565 2.19375 15.565 5.56C15.565 8.0975 14.9192 9.60625 13.5135 11.0425C13.7353 10.8175 13.7721 10.7263 13.7852 10.6613C13.7722 10.7273 13.7639 10.7941 13.7603 10.8612L14.0595 10.9637H14.0608ZM2.0015 18.1413H18.9985C18.9594 17.0978 18.6874 16.0742 18.2005 15.1388C17.6387 14.095 15.2946 13.3713 12.3467 12.3588C11.5487 12.0863 11.6786 10.1525 12.0317 9.7925C12.8599 8.94625 13.5621 7.95375 13.5621 5.56C13.5621 3.1425 12.5357 1.86 10.5039 1.86C8.47086 1.86 7.43791 3.1425 7.43791 5.56C7.43791 7.95375 8.13879 8.94625 8.96699 9.7925C9.32137 10.1525 9.4513 12.0838 8.65461 12.3588C5.70803 13.3713 3.36126 14.095 2.79819 15.1388C2.31174 16.0743 2.04014 17.0979 2.0015 18.1413Z" fill="#1D2523"/>
</svg>
